# xmcd
#
# Track frame offsets: 
#        150
#        16640
#        25697
#        40782
#        54942
#        66835
#        83572
#        96472
#        104577
#        124435
#        140245
#        151962
#        166100
#        182722
#        198395
#        206450
#        217862
#
# Disc length: 3123 seconds
#
# Revision: 0
# Processed by: cddbd v1.5.2PL0 Copyright (c) Steve Scherf et al.
# Submitted via: ExactAudioCopyFreeDBPlugin 1.0
#
DISCID=e20c3111
DTITLE=Tim Elliott and The Troublemakers - Tim Elliott and The Troublemake
DTITLE=rs
DYEAR=1993
DGENRE=Blues
TTITLE0=Cat Squirrel
TTITLE1=Ridin' The Freights
TTITLE2=Hobo Blues
TTITLE3=Good Morning Blues
TTITLE4=Judgement Day
TTITLE5=Come On In My Kitchen
TTITLE6=Calling Out To Jesus
TTITLE7=Down On The Farm
TTITLE8=Chain Gang Bound
TTITLE9=I'm Gonna Tell God All My Sorrows
TTITLE10=Evil
TTITLE11=Rollin' and Tumblin'
TTITLE12=Thunder and Lightnin'
TTITLE13=Sally Mae
TTITLE14=Morning Train 
TTITLE15=Milk Cow Blues
TTITLE16=Me And The Devil
EXTD=
EXTT0=
EXTT1=
EXTT2=
EXTT3=
EXTT4=
EXTT5=
EXTT6=
EXTT7=
EXTT8=
EXTT9=
EXTT10=
EXTT11=
EXTT12=
EXTT13=
EXTT14=
EXTT15=
EXTT16=
PLAYORDER=
